<?xml version="1.0" encoding="UTF-8"?>
<svg xmlns="http://www.w3.org/2000/svg" onmouseup="{ if(window.parent.document.onmouseup) window.parent.document.onmouseup(arguments[0]);}" viewBox="0 0 199.08 411.27" data-name="Layer 6" id="Layer_6"><defs><style>.cls-1{fill:#fff;}</style></defs><polyline data-cppathid="10000" points="62.63 181.34 92.63 401.46 136.26 181.34" class="cls-1"/><path data-cppathid="10001" transform="translate(-161.71 -34.54)" d="M214.69,218.54l10.17,74.55L241,411.37l3.72,27.29c1.33,9.81,17.45,9.26,19.28,0l14.75-74.39,23.5-118.55,5.39-27.18c1.05-5.29-1.51-10.79-7-12.3-4.91-1.35-11.24,1.66-12.3,7l-14.74,74.39L250.08,406.16l-5.38,27.18H264l-10.16-74.55L237.7,240.51,234,213.23c-.73-5.36-7.59-8.28-12.3-7-5.78,1.59-7.72,6.93-7,12.3Z"/><circle data-cppathid="10002" r="89.65" cy="99.61" cx="99.44" class="cls-1"/><path data-cppathid="10003" transform="translate(-161.71 -34.54)" d="M340.8,134.15c-.25,32.66-20.67,63.38-51.72,74.65a80.81,80.81,0,0,1-89.52-24.07c-21.4-25.47-23.7-63.21-6.74-91.53s51-43.82,83.41-37.3a80.57,80.57,0,0,1,64.57,78.25c.09,12.86,20.09,12.89,20,0a100.94,100.94,0,0,0-66.4-93.94c-38.47-14-83.93-1.49-109.81,30.22-26.41,32.36-30.67,78.65-9,114.76,21.72,36.27,64.68,54.82,106,46.49,45.88-9.24,78.9-51.17,79.26-97.53C360.89,121.28,340.89,121.26,340.8,134.15Z"/></svg>