<?xml version="1.0" encoding="UTF-8"?>
<svg xmlns="http://www.w3.org/2000/svg" onmouseup="{ if(window.parent.document.onmouseup) window.parent.document.onmouseup(arguments[0]);}" viewBox="0 0 364.98 306.91" data-name="Layer 4" id="Layer_4"><defs><style>.cls-1{fill:#fff;}</style></defs><polyline data-cppathid="10000" points="161.99 114.96 115.99 130.96 48.99 90.96 4.99 253.96 88.99 301.96 184.99 268.97 279.66 301.96 359.99 250.96 316.51 90.96 257.99 129.96 206.99 110.96" class="cls-1"/><path data-cppathid="10001" transform="translate(-71.01 -93.04)" d="M231.67,203.18l-46,16,3.85.5-67-40a5.05,5.05,0,0,0-7.34,3L76.65,325.4l-5.47,20.27a5.1,5.1,0,0,0,2.3,5.65l75.37,43.07c2.81,1.6,5.65,3.64,8.63,4.93,3.59,1.55,7.78-.85,11.22-2l48.13-16.54,24.61-8.46c4.81-1.65,10.08-2.92,14.71-5.06.17-.07,1-.2,1.07-.36-.21.5-3.27-.82-2.18.09.92.77,3,1.06,4.17,1.45l18.9,6.59,52.19,18.18L346.89,399c3,1,5.15,1,7.9-.67,25.72-15.76,51-32.35,76.42-48.51l2.31-1.47a5.13,5.13,0,0,0,2.3-5.65l-38.05-140-5.43-20c-.81-3-4.63-4.79-7.34-3l-58.52,39,3.85-.5-51-19c-6-2.25-8.65,7.41-2.66,9.64,16.53,6.16,33,13.27,49.79,18.55C331.75,229,336.8,223.8,341,221l28.78-19.19L390,188.32l-7.34-3,38.05,140,5.43,20,2.3-5.65-70.36,44.67-10,6.33,3.85-.5L268,360.9c-3.4-1.19-7-3-10.59-3.7-3.25-.63-7.09,1.49-10.08,2.52l-49.06,16.86-39.57,13.6,3.85.5L89.16,348.76l-10.64-6.08,2.3,5.65L119.35,205.6l5.47-20.27-7.34,3,47.57,28.4c6.28,3.75,12.56,8.38,19.2,11.46,2.81,1.31,4.66.44,7.32-.48l14.21-4.95,28.55-9.93c6-2.1,3.44-11.76-2.66-9.64Z"/><line data-cppathid="10002" y2="301.96" x2="88.99" y1="130.96" x1="115.99" class="cls-1"/><path data-cppathid="10003" transform="translate(-71.01 -93.04)" d="M182.18,222.67l-9.13,57.84-14.49,91.77-3.38,21.39c-1,6.3,8.64,9,9.64,2.66L174,338.49l14.49-91.77,3.38-21.39c1-6.3-8.64-9-9.64-2.66Z"/><line data-cppathid="10004" y2="301.96" x2="279.66" y1="129.96" x1="257.99" class="cls-1"/><path data-cppathid="10005" transform="translate(-71.01 -93.04)" d="M324,223l7.34,58.28L343,373.63,345.67,395c.79,6.3,10.8,6.38,10,0l-7.34-58.28-11.64-92.35L334,223c-.79-6.3-10.8-6.38-10,0Z"/><line data-cppathid="10006" y2="268.97" x2="184.99" y1="199.96" x1="185.49" class="cls-1"/><path data-cppathid="10007" transform="translate(-71.01 -93.04)" d="M251.5,293l-.5,69c-.05,6.43,9.95,6.44,10,0l.5-69c.05-6.44-9.95-6.44-10,0Z"/><polyline data-cppathid="10008" points="168.27 80.47 181.49 177.46 200.71 80.47" class="cls-1"/><path data-cppathid="10009" transform="translate(-71.01 -93.04)" d="M234.46,174.84,246,259.7l1.65,12.13c.67,4.91,8.72,4.63,9.64,0L274.14,187l2.41-12.17c1.24-6.28-8.39-9-9.64-2.65L250.09,257l-2.41,12.16h9.64l-11.56-84.86-1.66-12.12c-.86-6.35-10.5-3.65-9.64,2.65Z"/><circle data-cppathid="10010" r="39.5" cy="44.46" cx="184.49" class="cls-1"/><path data-cppathid="10011" transform="translate(-71.01 -93.04)" d="M290,137.5c-.25,14.31-9,27.46-22.6,32.41A34.53,34.53,0,1,1,290,137.5c.11,6.43,10.11,6.45,10,0a44.51,44.51,0,1,0-36.37,43.74c21.09-3.73,36-22.67,36.37-43.74C300.11,131.06,290.11,131.06,290,137.5Z"/></svg>